<svg width="737" height="700" viewBox="0 0 737 700" fill="none" xmlns="http://www.w3.org/2000/svg">
<path d="M20.2457 455.312C66.0792 405.213 346.173 417.274 358.673 417.274C658.212 417.274 685.064 433.51 719.786 465.518C754.508 497.526 727.194 569.891 719.786 577.777C712.379 585.663 708.675 595.405 714.693 616.744C719.508 633.815 712.687 651.999 708.675 658.957C679.045 686.79 706.823 696.532 358.673 699.779C10.5234 703.026 30.4309 669.626 25.3383 658.957C19.828 647.413 20.2457 622.774 25.3383 605.61C29.4124 591.88 22.3775 588.911 20.2457 585.2C4.96781 558.604 -16.4212 495.392 20.2457 455.312Z" fill="#F7F3E7"/>
<path d="M27.4849 173.562C16.1229 14.0109 207.203 1.60142 308.874 1.60132C406.517 -0.157689 581.386 -22.3314 596.476 173.562C608.549 330.277 408.866 334 308.874 334C216.079 334 38.847 333.114 27.4849 173.562Z" fill="#FEED9F"/>
</svg>
